<svg width="142" height="39" viewBox="0 0 142 39" fill="none" xmlns="http://www.w3.org/2000/svg">
<path d="M133.062 6.84725H133.824V2.72709H135.278V2H131.608V2.72709H133.062V6.84725Z" fill="white"/>
<path d="M136.249 6.84725H137.011V3.28106L138.777 5.53157L140.543 3.28106V6.84725H141.304V2H140.612L138.777 4.35438L136.942 2H136.249V6.84725Z" fill="white"/>
<path d="M68.0681 34.615C68.3382 34.615 68.5806 34.4003 68.5806 34.1233C68.5806 33.8948 68.4213 33.7148 68.1789 33.7148C67.9089 33.7148 67.6665 33.9294 67.6665 34.2064C67.6665 34.4349 67.8258 34.615 68.0681 34.615ZM69.7647 34.615C70.0347 34.615 70.2771 34.4003 70.2771 34.1233C70.2771 33.8948 70.1178 33.7148 69.8755 33.7148C69.6054 33.7148 69.363 33.9294 69.363 34.2064C69.363 34.4349 69.5223 34.615 69.7647 34.615ZM71.4612 34.615C71.7313 34.615 71.9736 34.4003 71.9736 34.1233C71.9736 33.8948 71.8144 33.7148 71.572 33.7148C71.3019 33.7148 71.0596 33.9294 71.0596 34.2064C71.0596 34.4349 71.2188 34.615 71.4612 34.615Z" fill="white"/>
<path d="M76.8827 34.5457H77.5751L78.6 29.6985H77.9075L77.4643 31.8174C77.4089 31.6928 77.3258 31.582 77.222 31.485C77.035 31.3189 76.758 31.1527 76.2941 31.1527C75.4216 31.1527 74.5075 31.9698 74.5075 33.1331C74.5075 33.9918 75.0892 34.615 75.8924 34.615C76.2456 34.615 76.5087 34.4903 76.6957 34.3588C76.7996 34.2826 76.8965 34.1926 76.9727 34.0956L76.8827 34.5457ZM76.0933 33.9571C75.567 33.9571 75.2 33.5624 75.2 33.0292C75.2 32.316 75.7678 31.8105 76.3425 31.8105C76.8688 31.8105 77.2358 32.2191 77.2358 32.7384C77.2358 33.4516 76.668 33.9571 76.0933 33.9571Z" fill="white"/>
<path d="M78.7556 34.5457H79.448L80.1543 31.2219H79.4619L78.7556 34.5457ZM79.9674 30.5987C80.182 30.5987 80.4313 30.4256 80.4313 30.1486C80.4313 29.927 80.2651 29.7677 80.0643 29.7677C79.8497 29.7677 79.6004 29.9408 79.6004 30.2178C79.6004 30.4394 79.7666 30.5987 79.9674 30.5987Z" fill="white"/>
<path d="M80.3205 35.1482C80.3205 35.1551 80.7014 35.9999 81.7816 35.9999C82.6957 35.9999 83.4366 35.3628 83.6374 34.4419L84.323 31.2219H83.6305L83.5059 31.7828C83.4989 31.7828 83.2497 31.1596 82.4187 31.1527C81.5877 31.1527 80.7083 31.9213 80.7083 33.05C80.7083 33.881 81.2623 34.4765 82.0171 34.4765C82.3287 34.4765 82.5849 34.3657 82.758 34.2549C82.8619 34.1926 82.9519 34.1164 83.0281 34.0264L82.9519 34.3726C82.8134 34.982 82.391 35.3351 81.837 35.3351C81.1723 35.3421 80.8884 34.7466 80.8884 34.7466L80.3205 35.1482ZM82.2317 33.8186C81.7401 33.8186 81.3869 33.4724 81.3869 32.9531C81.3869 32.2814 81.9201 31.8105 82.4533 31.8105C82.945 31.8105 83.2981 32.1567 83.2981 32.6761C83.2981 33.3478 82.7649 33.8186 82.2317 33.8186Z" fill="white"/>
<path d="M84.7805 34.5457H85.473L86.1793 31.2219H85.4869L84.7805 34.5457ZM85.9924 30.5987C86.207 30.5987 86.4563 30.4256 86.4563 30.1486C86.4563 29.927 86.2901 29.7677 86.0893 29.7677C85.8746 29.7677 85.6254 29.9408 85.6254 30.2178C85.6254 30.4394 85.7915 30.5987 85.9924 30.5987Z" fill="white"/>
<path d="M87.128 33.4032C86.9687 34.1233 87.2803 34.615 88.0767 34.615C88.1875 34.615 88.2706 34.6081 88.3467 34.5873L88.4575 34.5596L88.596 33.8879C88.5683 33.9017 88.5337 33.9156 88.4991 33.9225C88.4298 33.9433 88.3537 33.9571 88.2636 33.9571C87.9036 33.9571 87.7512 33.7286 87.8274 33.4032L88.1459 31.8797H88.9076L89.053 31.2219H88.2913L88.5268 30.114H87.9036L87.7443 30.8411C87.6889 31.118 87.5712 31.2219 87.3565 31.2219H86.9757L86.8302 31.8797H87.4535L87.128 33.4032Z" fill="white"/>
<path d="M91.6421 33.1539C91.5313 33.6802 91.095 34.0264 90.6172 34.0264C90.2571 34.0264 90.0632 33.8256 90.0632 33.6248C90.0632 33.3962 90.2087 33.1885 90.5964 33.1262L91.6836 32.9531L91.6421 33.1539ZM91.3512 34.5457H92.0437L92.4522 32.6068C92.6184 31.7759 92.0922 31.1527 91.185 31.1527C90.7972 31.1527 90.4926 31.2704 90.2779 31.4019C90.1533 31.4781 90.0425 31.5543 89.9386 31.6443L90.2848 32.136C90.361 32.0667 90.451 32.0044 90.541 31.9559C90.7003 31.8659 90.915 31.7759 91.185 31.7759C91.6282 31.7759 91.8429 32.1221 91.8082 32.3783L90.361 32.6138C89.8416 32.7038 89.3431 33.0639 89.3431 33.7148C89.3431 34.1649 89.7239 34.615 90.3887 34.615C90.7419 34.615 90.9842 34.4903 91.1712 34.3588C91.275 34.2826 91.3651 34.1926 91.4412 34.0956L91.3512 34.5457Z" fill="white"/>
<path d="M93.1553 34.5457H93.8478L94.8795 29.6985H94.1871L93.1553 34.5457Z" fill="white"/>
<path d="M99.311 33.604C99.2279 33.6732 99.1379 33.7356 99.041 33.784C98.8748 33.874 98.6394 33.9571 98.3831 33.9571C97.7945 33.9571 97.4483 33.5417 97.4137 33.1262H99.9897L100.031 32.9461C100.052 32.8354 100.08 32.6969 100.08 32.5376C100.08 31.7828 99.5049 31.1527 98.5978 31.1527C97.6353 31.1527 96.7074 31.9836 96.7074 33.0708C96.7074 33.9433 97.3652 34.615 98.307 34.615C98.7224 34.615 99.041 34.5042 99.2695 34.3726C99.4011 34.3034 99.5119 34.2203 99.6157 34.1303L99.311 33.604ZM97.5037 32.5376C97.6145 32.2329 97.9607 31.7759 98.5286 31.7759C99.0479 31.7759 99.318 32.0459 99.3664 32.5376H97.5037Z" fill="white"/>
<path d="M103.089 34.5457H103.781L104.806 29.6985H104.114L103.671 31.8174C103.615 31.6928 103.532 31.582 103.428 31.485C103.241 31.3189 102.964 31.1527 102.5 31.1527C101.628 31.1527 100.714 31.9698 100.714 33.1331C100.714 33.9918 101.295 34.615 102.099 34.615C102.452 34.615 102.715 34.4903 102.902 34.3588C103.006 34.2826 103.103 34.1926 103.179 34.0956L103.089 34.5457ZM102.3 33.9571C101.773 33.9571 101.406 33.5624 101.406 33.0292C101.406 32.316 101.974 31.8105 102.549 31.8105C103.075 31.8105 103.442 32.2191 103.442 32.7384C103.442 33.4516 102.874 33.9571 102.3 33.9571Z" fill="white"/>
<path d="M105.246 33.0223C105.045 33.9641 105.557 34.615 106.312 34.615C106.665 34.615 106.921 34.4903 107.108 34.3588C107.212 34.2826 107.295 34.1926 107.372 34.0956L107.282 34.5457H107.974L108.68 31.2219H107.988L107.586 33.0916C107.455 33.6663 107.039 33.9571 106.624 33.9571C106.07 33.9571 105.82 33.5832 105.924 33.0916L106.326 31.2219H105.634L105.246 33.0223Z" fill="white"/>
<path d="M111.742 33.5624C111.658 33.6386 111.568 33.7079 111.478 33.7633C111.312 33.8671 111.098 33.9571 110.828 33.9571C110.274 33.9571 109.9 33.5486 109.9 33.0292C109.9 32.3091 110.467 31.8105 111.056 31.8105C111.388 31.8105 111.617 31.949 111.762 32.0875C111.845 32.1706 111.915 32.2606 111.97 32.3576L112.538 31.9559C112.462 31.8105 112.358 31.672 112.226 31.5543C112.005 31.3535 111.652 31.1527 111.118 31.1527C110.135 31.1527 109.207 31.9905 109.207 33.0708C109.207 33.9225 109.851 34.615 110.779 34.615C111.195 34.615 111.52 34.4765 111.762 34.338C111.901 34.2549 112.026 34.1649 112.129 34.061L111.742 33.5624Z" fill="white"/>
<path d="M115.076 33.1539C114.965 33.6802 114.529 34.0264 114.051 34.0264C113.691 34.0264 113.497 33.8256 113.497 33.6248C113.497 33.3962 113.643 33.1885 114.03 33.1262L115.118 32.9531L115.076 33.1539ZM114.785 34.5457H115.478L115.886 32.6068C116.052 31.7759 115.526 31.1527 114.619 31.1527C114.231 31.1527 113.927 31.2704 113.712 31.4019C113.587 31.4781 113.476 31.5543 113.373 31.6443L113.719 32.136C113.795 32.0667 113.885 32.0044 113.975 31.9559C114.134 31.8659 114.349 31.7759 114.619 31.7759C115.062 31.7759 115.277 32.1221 115.242 32.3783L113.795 32.6138C113.276 32.7038 112.777 33.0639 112.777 33.7148C112.777 34.1649 113.158 34.615 113.823 34.615C114.176 34.615 114.418 34.4903 114.605 34.3588C114.709 34.2826 114.799 34.1926 114.875 34.0956L114.785 34.5457Z" fill="white"/>
<path d="M116.999 33.4032C116.84 34.1233 117.152 34.615 117.948 34.615C118.059 34.615 118.142 34.6081 118.218 34.5873L118.329 34.5596L118.467 33.8879C118.44 33.9017 118.405 33.9156 118.371 33.9225C118.301 33.9433 118.225 33.9571 118.135 33.9571C117.775 33.9571 117.623 33.7286 117.699 33.4032L118.017 31.8797H118.779L118.925 31.2219H118.163L118.398 30.114H117.775L117.616 30.8411C117.56 31.118 117.443 31.2219 117.228 31.2219H116.847L116.702 31.8797H117.325L116.999 33.4032Z" fill="white"/>
<path d="M119.358 34.5457H120.051L120.757 31.2219H120.065L119.358 34.5457ZM120.57 30.5987C120.785 30.5987 121.034 30.4256 121.034 30.1486C121.034 29.927 120.868 29.7677 120.667 29.7677C120.452 29.7677 120.203 29.9408 120.203 30.2178C120.203 30.4394 120.369 30.5987 120.57 30.5987Z" fill="white"/>
<path d="M122.876 34.615C123.873 34.615 124.794 33.784 124.794 32.6969C124.794 31.8451 124.157 31.1527 123.236 31.1527C122.239 31.1527 121.318 31.9836 121.318 33.0708C121.318 33.9225 121.955 34.615 122.876 34.615ZM123.16 31.8105C123.714 31.8105 124.102 32.2052 124.102 32.7384C124.102 33.4516 123.541 33.9571 122.952 33.9571C122.398 33.9571 122.01 33.5624 122.01 33.0292C122.01 32.316 122.571 31.8105 123.16 31.8105Z" fill="white"/>
<path d="M125.349 34.5457H126.041L126.443 32.6761C126.567 32.1083 126.983 31.8105 127.405 31.8105C127.959 31.8105 128.209 32.1844 128.105 32.6761L127.703 34.5457H128.396L128.783 32.7453C128.984 31.8036 128.472 31.1527 127.717 31.1527C127.364 31.1527 127.094 31.2842 126.921 31.4158C126.817 31.492 126.727 31.582 126.657 31.672L126.747 31.2219H126.055L125.349 34.5457Z" fill="white"/>
<path d="M47 23.0826H60.4772V18.8405H51.6985V16.3451H58.2516V12.3525H51.6985V9.85716H60.2299V5.61504H47V23.0826Z" fill="white"/>
<path d="M63.9402 23.0826H70.3697C75.9337 23.0826 79.7667 19.2148 79.7667 14.3488C79.7667 9.48286 75.9337 5.61504 70.3697 5.61504H63.9402V23.0826ZM68.6387 18.8405V9.85716H70.3697C73.0652 9.85716 74.9446 11.7536 74.9446 14.3488C74.9446 16.944 73.0652 18.8405 70.3697 18.8405H68.6387Z" fill="white"/>
<path d="M86.9439 23.0826H92.1369L98.3191 5.61504H93.2497L89.5899 17.8423H89.4909L85.8311 5.61504H80.7617L86.9439 23.0826Z" fill="white"/>
<path d="M100.791 23.0826H114.268V18.8405H105.49V16.3451H112.043V12.3525H105.49V9.85716H114.021V5.61504H100.791V23.0826Z" fill="white"/>
<path d="M116.371 20.5872C116.841 21.1612 117.41 21.6602 118.078 22.0845C119.24 22.858 120.921 23.5817 123.295 23.5817C127.524 23.5817 130.096 20.9615 130.096 17.9671C130.096 11.8535 121.935 12.8516 121.935 10.481C121.935 9.85716 122.529 9.23332 123.914 9.23332C124.779 9.23332 125.496 9.55772 125.991 9.93202C126.287 10.1317 126.535 10.3562 126.757 10.6058L129.477 7.61133C129.082 7.13721 128.587 6.73795 128.019 6.36365C127.029 5.73981 125.521 5.11597 123.419 5.11597C119.339 5.11597 116.866 7.7361 116.866 10.481C116.866 16.5947 125.026 15.5965 125.026 17.9671C125.026 18.7407 124.284 19.4643 122.801 19.4643C121.688 19.4643 120.773 19.0152 120.105 18.541C119.734 18.2665 119.388 17.9422 119.091 17.5928L116.371 20.5872Z" fill="white"/>
<path d="M18.7832 38.2463C18.789 38.2065 18.789 38.166 18.7832 38.1262C18.8376 38.0663 18.904 38.0185 18.9781 37.9857C19.0523 37.953 19.1325 37.936 19.2136 37.936C19.2947 37.936 19.3749 37.953 19.449 37.9857C19.5231 38.0185 19.5895 38.0663 19.6439 38.1262C19.6363 38.1659 19.6363 38.2067 19.6439 38.2463H18.7832Z" fill="#87AFCE"/>
<path d="M19.6321 38.126H18.7713C17.8249 37.8624 17.1784 37.1724 16.5825 36.4823C15.7473 35.5806 14.6635 34.9441 13.4667 34.6525C13.1434 34.4044 13.3771 34.2028 13.5368 34.0206C13.8055 33.7066 14.1171 33.4275 14.4131 33.1329C16.5396 31.0511 18.6233 28.8918 20.7888 26.8411C22.2963 25.3993 23.4699 23.6477 24.2279 21.7084C25.1782 19.3514 26.4401 17.1417 27.4723 14.8234C27.9046 13.8504 27.9202 13.862 27.1724 13.1138C26.854 12.8442 26.5643 12.5429 26.3077 12.2144C25.9884 11.7299 25.6106 11.7105 25.112 11.9159C23.5074 12.5788 21.9105 13.2689 20.3331 14.0016C18.6973 14.7769 17.081 15.5522 15.3907 16.219C14.8725 16.4198 14.4047 16.7307 14.0197 17.13C11.6127 19.5297 9.1902 21.9138 6.79102 24.3212C6.12112 24.9958 5.35385 25.5618 4.69174 26.2596C4.55931 26.3991 4.41131 26.5852 4.15815 26.4728C3.69251 25.6262 3.36888 24.7096 3.20004 23.7591C3.13124 23.4159 2.95216 23.1044 2.68982 22.8714C2.06276 22.193 1.40065 21.5417 0.781384 20.8555C-0.231257 19.708 -0.26631 18.6458 0.715173 17.4828C1.26823 16.8354 1.90697 16.2578 2.52235 15.6608C2.79093 15.408 2.978 15.0814 3.05983 14.7226C3.26433 13.772 3.61093 12.8573 4.08805 12.009C4.8091 10.6945 5.15904 9.21017 5.10069 7.71364C5.10069 5.36438 5.58753 4.84491 7.97113 4.91469C9.52724 5.02752 11.0801 4.65634 12.4151 3.85249C12.8645 3.56059 13.372 3.36883 13.9029 3.29037C14.9212 3.12844 15.8407 2.58987 16.4773 1.78235C16.8747 1.30019 17.3284 0.866828 17.8288 0.491427C18.2876 0.147511 18.853 -0.0253313 19.4266 0.00300376C20.0002 0.0313388 20.5457 0.259056 20.968 0.646493C21.5016 1.12332 21.9923 1.65055 22.4831 2.17002C22.9458 2.69485 23.5705 3.05206 24.2591 3.1857C25.1517 3.348 26.0023 3.68821 26.7595 4.18588C27.6247 4.73861 28.6478 4.99456 29.6728 4.91469C30.4112 4.81119 31.1625 4.84404 31.8889 5.01161C33.0301 5.36051 33.5909 5.99628 33.5403 7.17478C33.4319 9.11845 33.8645 11.0542 34.7905 12.7688C34.8958 12.9478 34.9745 13.1411 35.0242 13.3425C35.3202 14.8932 36.2744 15.9748 37.4117 16.9595C37.7272 17.2326 37.9979 17.553 38.214 17.9092C38.4311 18.2264 38.5471 18.6013 38.5471 18.985C38.5471 19.3688 38.4311 19.7436 38.214 20.0608C37.9793 20.4604 37.6746 20.8148 37.3143 21.1075C36.4288 21.819 35.7743 22.7753 35.4332 23.856C35.0099 24.9803 34.5465 26.0864 34.0427 27.1745C33.6655 27.9665 33.5069 28.8443 33.5832 29.7175C33.624 30.1547 33.624 30.5946 33.5832 31.0317C33.5692 31.339 33.4942 31.6405 33.3624 31.9187C33.2306 32.1969 33.0447 32.4464 32.8154 32.6526C32.5861 32.8588 32.318 33.0178 32.0266 33.1202C31.7352 33.2226 31.4263 33.2664 31.1178 33.2492C29.2319 33.1205 27.349 33.5379 25.6962 34.4509C25.4414 34.6118 25.1566 34.7199 24.8589 34.7688C23.3672 34.9278 22.3857 35.8776 21.4198 36.8661C20.9057 37.3894 20.3916 37.9322 19.6321 38.126Z" fill="#1B6BB6"/>
<path d="M4.1543 26.4536C4.44251 26.4226 4.57104 26.1784 4.7463 26.0078C7.78942 23.0279 10.8247 20.0442 13.8523 17.0566C14.3021 16.6237 14.8309 16.2803 15.4102 16.0448C18.4092 14.7345 21.3887 13.366 24.3682 12.0479C25.8014 11.416 25.8131 11.4471 26.8959 12.579C28.1071 13.8428 28.1461 13.8622 27.3866 15.3896C26.0936 17.9986 24.8862 20.6541 23.6632 23.298C23.1324 24.4255 22.4 25.4475 21.5016 26.314C18.8999 28.8804 16.3255 31.4739 13.751 34.0673C13.6108 34.2108 13.2291 34.3038 13.4784 34.6527C12.8202 34.5752 12.31 34.1177 11.6751 33.9704C12.1922 33.7171 12.6349 33.3352 12.9604 32.8617C13.4089 32.3309 13.8929 31.831 14.4092 31.3653C16.3878 29.3921 18.378 27.4266 20.3566 25.4534C20.7629 25.0394 21.1947 24.651 21.6496 24.2904C21.7302 24.2403 21.8 24.1747 21.8549 24.0974C21.9099 24.0202 21.9488 23.9328 21.9694 23.8405C21.9901 23.7481 21.9921 23.6526 21.9753 23.5595C21.9585 23.4663 21.9233 23.3774 21.8716 23.298C21.7197 23.0383 21.6457 22.7436 21.5172 22.4723C21.2523 21.9024 21.2601 21.914 20.7694 22.3405C18.822 24.0268 17.0849 25.9031 15.2466 27.6902C13.5874 29.2952 11.9867 30.9583 10.3236 32.5593C10.0432 32.8346 9.93414 33.071 10.1678 33.4122C9.45119 33.4122 8.72287 33.5169 8.02181 33.2726C7.98675 32.9703 8.21654 32.8191 8.41128 32.6485C10.456 30.6675 12.3061 28.4966 14.4014 26.5699C15.7335 25.3487 17.0187 24.085 18.2962 22.8212C18.7285 22.3986 19.0752 21.8946 19.4958 21.476C19.7412 21.2395 19.7295 21.034 19.3945 20.8983C19.1875 20.8218 19.0006 20.6998 18.8475 20.5414C18.6944 20.383 18.5792 20.1923 18.5104 19.9835C18.3585 19.5493 18.0742 19.5725 17.7587 19.8323C17.5796 19.9796 17.416 20.1424 17.2485 20.3052C13.8159 23.6986 10.3807 27.0984 6.94295 30.5047C6.40158 31.0397 6.02379 31.7258 5.38504 32.16C5.01206 31.7197 4.82376 31.1533 4.85925 30.5784C4.82809 29.803 4.85925 29.0277 4.85925 28.2524C5.24873 28.3764 5.1241 28.6982 5.13967 28.9502C5.16694 29.3805 5.13967 29.8108 5.17083 30.3574C5.78621 29.8185 6.33926 29.4037 6.82611 28.9308C8.12307 27.6825 9.44729 26.4497 10.6975 25.1588C12.7228 23.0732 14.8688 21.0999 16.7734 18.898C17.3537 18.2235 17.3303 18.1227 16.4968 17.735C15.3751 17.2116 15.2933 17.2659 14.4521 18.1886C13.5614 19.1803 12.6036 20.1103 11.5855 20.972C11.4258 21.1038 11.27 21.2395 11.1181 21.3829C9.94972 22.5149 8.82802 23.7322 7.56612 24.7866C6.78031 25.5064 6.04993 26.2839 5.38115 27.1126C5.24483 27.2638 5.14746 27.4615 4.90209 27.4732C4.41525 27.3065 4.41135 26.787 4.1543 26.4536Z" fill="#FCFDFD"/>
<path d="M5.3772 32.1598C5.7629 31.5295 6.23921 30.9587 6.791 30.4657C10.2651 26.8488 13.8873 23.3753 17.4627 19.8514C17.5756 19.739 17.7119 19.6499 17.8288 19.5374C18.1832 19.1924 18.4286 19.2816 18.561 19.7274C18.6159 19.9719 18.736 20.1971 18.9088 20.3792C19.0815 20.5614 19.3004 20.6938 19.5425 20.7625C20.0254 20.9098 19.9982 21.1501 19.6944 21.4951C18.3195 23.0458 16.7967 24.4802 15.3011 25.93C12.8292 28.3258 10.4028 30.7668 8.02175 33.253C6.94679 33.3422 5.97699 33.1949 5.3772 32.1598Z" fill="#1B6BB6"/>
<path d="M4.90227 27.473C6.79513 25.0618 9.18652 23.1389 11.352 20.9913C12.5204 19.8283 13.7863 18.7195 14.8573 17.4364C14.9331 17.322 15.0455 17.2364 15.1763 17.1935C15.307 17.1505 15.4485 17.1528 15.5778 17.1999C16.2789 17.3898 17.1358 17.5876 17.4434 18.1342C17.646 18.4869 16.8436 19.0568 16.4425 19.4871C13.0307 23.1389 9.48902 26.6602 5.81755 30.051C5.58775 30.2642 5.34238 30.4619 5.03859 30.7372L4.87891 28.2406C4.87891 27.9848 4.89059 27.7289 4.90227 27.473Z" fill="#1B6BB6"/>
<path d="M10.1674 33.3768L9.57544 33.2256C9.6066 32.9814 9.79355 32.8612 9.93376 32.7139C13.4157 29.1435 16.9521 25.6235 20.6405 22.2275C21.3338 21.5879 21.3415 21.5995 21.6999 22.4214C22.3269 23.8557 22.3152 23.8441 21.1741 24.9451C18.179 27.8216 15.1644 30.6631 12.4147 33.7645C12.1733 34.0358 11.9396 33.9699 11.6747 33.9738C11.2035 33.6947 10.7789 33.3032 10.1674 33.3768Z" fill="#1B6BB6"/>
<path d="M29.4819 10.1169C29.182 10.9659 28.9094 11.7296 28.6406 12.4933C28.5472 12.7492 28.403 12.7531 28.1655 12.6445C27.6014 12.3307 27.1239 11.8833 26.775 11.342C26.6153 11.1288 26.775 11.0086 26.9386 10.9117C27.7289 10.4906 28.5916 10.221 29.4819 10.1169V10.1169Z" fill="#F9FBFC"/>
</svg>
